<svg xmlns="http://www.w3.org/2000/svg" xmlns:xlink="http://www.w3.org/1999/xlink" width="371.287" height="399.693" viewBox="0 0 371.287 399.693">
  <defs>
    <clipPath id="clip-path">
      <path id="パス_2503" data-name="パス 2503" d="M1135.768,408.479c0,29.024,23.527,98.4,52.551,98.4s52.553-69.372,52.553-98.4a52.552,52.552,0,1,0-105.1,0" fill="none"/>
    </clipPath>
  </defs>
  <g id="グループ_537" data-name="グループ 537" transform="translate(-1021.671 -268.345)">
    <path id="パス_2500" data-name="パス 2500" d="M1246.629,606.8h-116.24a60.714,60.714,0,0,1-60.474-66.11l10.191-114.23,216.774-.95,10.226,115.208a60.714,60.714,0,0,1-60.477,66.082" fill="#0094ff"/>
    <path id="パス_2501" data-name="パス 2501" d="M1240.872,408.48c0,29.023-23.529,98.395-52.553,98.395s-52.552-69.372-52.552-98.395a52.552,52.552,0,1,1,105.1,0" fill="#fff"/>
    <g id="グループ_536" data-name="グループ 536">
      <g id="グループ_535" data-name="グループ 535" clip-path="url(#clip-path)">
        <path id="パス_2502" data-name="パス 2502" d="M1206.616,425.43h-36.594l8.547,30.263-8.547,87.885h36.594l-8.546-87.885Z" fill="#eb4628"/>
      </g>
    </g>
    <rect id="長方形_156" data-name="長方形 156" width="33.647" height="84.724" transform="translate(1141.029 569.501)" fill="#0094ff"/>
    <path id="パス_2504" data-name="パス 2504" d="M1174.676,640.425s-43.918-1.037-53,16.074c-5.046,9.507,10.549,11.576,25.4,11.538,8.026-.022,17.8-.015,23.3-.007a4.287,4.287,0,0,0,4.293-4.29Z" fill="#494949"/>
    <rect id="長方形_157" data-name="長方形 157" width="33.647" height="84.724" transform="translate(1205.674 569.501)" fill="#0094ff"/>
    <path id="パス_2505" data-name="パス 2505" d="M1205.674,640.425s43.918-1.037,53,16.074c5.045,9.507-10.549,11.576-25.4,11.538-8.027-.022-17.8-.015-23.3-.007a4.288,4.288,0,0,1-4.293-4.29Z" fill="#494949"/>
    <rect id="長方形_158" data-name="長方形 158" width="116.058" height="79.606" transform="translate(1227.677 472.891) rotate(-10)" fill="#494949"/>
    <path id="パス_2506" data-name="パス 2506" d="M1277.729,515.449c4.853,27.523-9.688,53.092-32.477,57.11s-45.2-15.035-50.052-42.558-3.221-50.815,32.478-57.11,45.2,15.035,50.051,42.558" fill="#494949"/>
    <path id="パス_2507" data-name="パス 2507" d="M1392.024,495.3c4.853,27.522-9.688,53.091-32.477,57.11s-45.2-15.035-50.052-42.558-3.221-50.816,32.478-57.11,45.2,15.035,50.051,42.558" fill="#494949"/>
    <path id="パス_2508" data-name="パス 2508" d="M1355.243,483.605a7.762,7.762,0,1,1-8.991-6.3,7.762,7.762,0,0,1,8.991,6.3" fill="#ecc580"/>
    <path id="パス_2509" data-name="パス 2509" d="M1360.679,514.434a7.762,7.762,0,1,1-8.992-6.3,7.761,7.761,0,0,1,8.992,6.3" fill="#ecc580"/>
    <path id="パス_2510" data-name="パス 2510" d="M1367.08,505.293a7.761,7.761,0,1,1,6.3-8.991,7.762,7.762,0,0,1-6.3,8.991" fill="#ecc580"/>
    <path id="パス_2511" data-name="パス 2511" d="M1336.251,510.729a7.761,7.761,0,1,1,6.3-8.991,7.762,7.762,0,0,1-6.3,8.991" fill="#ecc580"/>
    <path id="パス_2512" data-name="パス 2512" d="M1310.7,521.2l-4.481.79a3.8,3.8,0,0,1-1.319-7.481l4.481-.789a3.8,3.8,0,1,1,1.319,7.48" fill="#f9ce82"/>
    <path id="パス_2513" data-name="パス 2513" d="M1295.674,503.891l-4.481.791a3.8,3.8,0,1,1-1.319-7.481l4.481-.79a3.8,3.8,0,1,1,1.319,7.48" fill="#f9ce82"/>
    <path id="パス_2514" data-name="パス 2514" d="M1244.6,541.152l-4.8.845a4.368,4.368,0,0,1-5.06-3.542l-6.192-35.12a4.367,4.367,0,0,1,3.543-5.059l4.8-.846a4.366,4.366,0,0,1,5.059,3.542l6.193,35.12a4.368,4.368,0,0,1-3.542,5.06" fill="#ecc580"/>
    <path id="パス_2515" data-name="パス 2515" d="M1216.913,525.966l-.846-4.8a4.368,4.368,0,0,1,3.543-5.059l35.119-6.192a4.367,4.367,0,0,1,5.06,3.542l.845,4.8a4.366,4.366,0,0,1-3.542,5.059l-35.12,6.193a4.368,4.368,0,0,1-5.059-3.543" fill="#ecc580"/>
    <path id="パス_2516" data-name="パス 2516" d="M1072.944,394.7a25.636,25.636,0,1,1-25.636-25.637,25.637,25.637,0,0,1,25.636,25.637" fill="#d07431"/>
    <path id="パス_2517" data-name="パス 2517" d="M1330.3,534.091a25.637,25.637,0,1,1-25.636-25.637,25.637,25.637,0,0,1,25.636,25.637" fill="#d07431"/>
    <path id="パス_2518" data-name="パス 2518" d="M1105.538,448.152s-33.5-14.721-33.5-46.7h-49.746s4.344,83.709,57.644,98.938Z" fill="#0094ff"/>
    <path id="パス_2519" data-name="パス 2519" d="M1294.328,424.616s44.024,29.894,36.717,109.379H1278.12s-1.517-57.459-16.66-69.175" fill="#0094ff"/>
    <path id="パス_2520" data-name="パス 2520" d="M1296.471,419.732a16.306,16.306,0,0,1-15.786,19.1h-.274c-9.207,0-9.207-4.911-18.413-4.911s-9.2,4.911-18.41,4.911-9.2-4.911-18.408-4.911-9.2,4.911-18.4,4.911-9.2-4.911-18.408-4.911-9.2,4.911-18.4,4.911-9.2-4.911-18.4-4.911-9.2,4.911-18.4,4.911-9.2-4.911-18.407-4.911-9.2,4.911-18.4,4.911a16.275,16.275,0,0,1-7.954-1.8,15.463,15.463,0,0,1-8.242-16.429c9.17-54.319,23-110.989,108.233-110.989,84.781,0,98.913,56.071,108.086,110.125" fill="#d07431"/>
    <path id="パス_2521" data-name="パス 2521" d="M1191.607,335.234a9.513,9.513,0,0,1,1.545-17.065c27.808-10.51,100.063-35.765,98.9-13.942-.719,13.537-19.306,29.139-22.608,31.808a8.784,8.784,0,0,1-.974.7c-12.514,7.586-57.344,10.024-76.865-1.5" fill="#d07431"/>
    <path id="パス_2522" data-name="パス 2522" d="M1185.381,335.234a9.513,9.513,0,0,0-1.546-17.065c-27.808-10.51-100.063-35.765-98.9-13.942.72,13.537,19.307,29.139,22.609,31.808a8.749,8.749,0,0,0,.973.7c12.515,7.586,57.345,10.024,76.867-1.5" fill="#d07431"/>
    <path id="パス_2523" data-name="パス 2523" d="M1171.838,299.182h33.312a91.73,91.73,0,0,1,91.73,91.731v34.626l-216.774.949V390.913a91.731,91.731,0,0,1,91.732-91.731" fill="#d07431"/>
    <path id="パス_2524" data-name="パス 2524" d="M1224.9,332.646c-14.871,0-28.076,8.734-36.4,20.424-8.328-11.69-21.532-20.424-36.4-20.424-25.192,0-45.614,17.875-45.614,39.926s10.768,39.925,35.96,39.925h92.114c25.193,0,35.961-17.875,35.961-39.925s-20.423-39.926-45.614-39.926" fill="#ecc580"/>
    <path id="パス_2525" data-name="パス 2525" d="M1188.494,395.035c5.505,0,9.884,5.514,13.676,5.253,7.367-.506,6.75-4.966,11.914-5.3,5.461-.353,17.382,7.245,21.9,1.739s-21.26-29.98-47.485-29.98-52,24.473-47.486,29.98,13.931-1.857,19.393-1.5c5.163.335,6.2,5.065,13.221,5.065s9.365-5.253,14.872-5.253" fill="#fff"/>
    <path id="パス_2526" data-name="パス 2526" d="M1234.022,361.243a12.976,12.976,0,1,1-12.976-12.976,12.976,12.976,0,0,1,12.976,12.976" fill="#fff51e"/>
    <path id="パス_2527" data-name="パス 2527" d="M1168.917,361.243a12.976,12.976,0,1,1-12.976-12.976,12.975,12.975,0,0,1,12.976,12.976" fill="#fff51e"/>
    <path id="パス_2528" data-name="パス 2528" d="M1230.794,361.243a9.748,9.748,0,1,1-9.748-9.75,9.747,9.747,0,0,1,9.748,9.75" fill="#494949"/>
    <path id="パス_2529" data-name="パス 2529" d="M1165.676,361.243a9.749,9.749,0,1,1-9.749-9.75,9.748,9.748,0,0,1,9.749,9.75" fill="#494949"/>
    <path id="パス_2530" data-name="パス 2530" d="M1045.39,390.977l-2.1-.687a3.855,3.855,0,0,1-2.466-4.864L1078.269,271a3.856,3.856,0,0,1,4.865-2.465l2.1.686a3.857,3.857,0,0,1,2.466,4.865l-37.443,114.423a3.856,3.856,0,0,1-4.865,2.466" fill="#494949"/>
  </g>
</svg>
